<?xml version="1.0" encoding="iso-8859-1"?>
<!-- Generator: Adobe Illustrator 19.0.0, SVG Export Plug-In . SVG Version: 6.00 Build 0)  -->
<svg version="1.1" id="Layer_1" xmlns="http://www.w3.org/2000/svg" xmlns:xlink="http://www.w3.org/1999/xlink" x="0px" y="0px"
	 viewBox="0 0 512 512" style="enable-background:new 0 0 512 512;" xml:space="preserve">
<path style="fill:#FF7976;" d="M256,512C114.511,512,0,397.503,0,256C0,114.511,114.497,0,256,0c141.49,0,256,114.497,256,256
	C512,397.49,397.503,512,256,512z"/>
<g>
	<path style="fill:#FF5752;" d="M256,0v512c141.503,0,256-114.51,256-256C512,114.497,397.49,0,256,0z"/>
	<path style="fill:#FF5752;" d="M280.136,256l79.986-79.987c6.665-6.664,6.665-17.471,0-24.136c-6.664-6.664-17.471-6.664-24.136,0
		L256,231.864l-79.986-79.987c-6.664-6.665-17.469-6.665-24.136,0c-6.665,6.664-6.665,17.471,0,24.136L231.864,256l-79.986,79.987
		c-6.665,6.664-6.665,17.471,0,24.136c6.665,6.665,17.471,6.665,24.136,0L256,280.136l79.986,79.987
		c6.663,6.664,17.469,6.666,24.136,0c6.665-6.664,6.665-17.471,0-24.136L280.136,256z"/>
</g>
<path style="fill:#DB3A3C;" d="M280.136,256l79.986-79.987c6.665-6.664,6.665-17.471,0-24.136c-6.664-6.664-17.471-6.664-24.136,0
	L256,231.864v48.271l79.986,79.987c6.663,6.664,17.469,6.666,24.136,0c6.665-6.664,6.665-17.471,0-24.136L280.136,256z"/>
<g>
</g>
<g>
</g>
<g>
</g>
<g>
</g>
<g>
</g>
<g>
</g>
<g>
</g>
<g>
</g>
<g>
</g>
<g>
</g>
<g>
</g>
<g>
</g>
<g>
</g>
<g>
</g>
<g>
</g>
</svg>
